<?xml version="1.0" standalone="no"?>
<!DOCTYPE svg PUBLIC "-//W3C//DTD SVG 20010904//EN"
 "http://www.w3.org/TR/2001/REC-SVG-20010904/DTD/svg10.dtd">
<svg version="1.0" xmlns="http://www.w3.org/2000/svg"
 width="677.000000pt" height="369.000000pt" viewBox="0 0 677.000000 369.000000"
 preserveAspectRatio="xMidYMid meet">

<g transform="translate(0.000000,369.000000) scale(0.100000,-0.100000)"
fill="#000000" stroke="none">
<path d="M3366 3163 c-10 -43 -28 -127 -41 -188 -14 -60 -27 -120 -31 -132 -5
-17 -2 -23 9 -23 10 0 17 14 21 43 4 23 17 85 31 137 l24 95 0 -131 c1 -146 0
-144 75 -144 25 0 28 3 22 23 -4 12 -17 74 -31 137 -28 134 -55 254 -59 258
-2 1 -11 -33 -20 -75z"/>
<path d="M3071 3153 c-29 -35 -32 -36 -44 -19 -16 22 -53 14 -62 -14 -8 -24
-44 -70 -56 -70 -5 0 -9 6 -9 14 0 8 -4 17 -9 20 -18 12 -40 -6 -60 -50 -19
-38 -24 -44 -45 -38 -28 7 -40 -10 -51 -67 -5 -28 -14 -40 -41 -52 -19 -9 -34
-23 -34 -32 0 -8 -7 -15 -15 -15 -8 0 -15 5 -15 10 0 14 -27 12 -37 -2 -4 -7
-10 -31 -13 -53 -4 -33 -9 -40 -27 -40 -32 0 -38 -11 -43 -78 -5 -61 -5 -62
-35 -62 -28 0 -30 -2 -29 -40 0 -22 2 -49 5 -60 3 -15 -2 -21 -18 -23 -19 -3
-23 -10 -23 -40 0 -20 12 -64 25 -97 14 -33 25 -68 25 -77 0 -10 5 -18 11 -18
14 0 1 129 -15 150 -9 13 -9 13 6 2 18 -14 17 -16 32 73 1 11 8 31 13 45 6 14
18 42 27 64 9 21 16 47 16 58 0 10 4 17 9 13 5 -3 20 17 33 44 13 28 29 50 36
51 17 0 15 -15 -4 -31 -15 -12 -44 -61 -44 -74 0 -3 6 -3 13 1 6 4 0 -6 -15
-22 -15 -16 -34 -49 -43 -73 -18 -53 -18 -54 -2 -45 6 4 4 -1 -5 -12 -20 -23
-41 -106 -28 -114 5 -3 5 -12 0 -20 -6 -8 -10 -24 -9 -35 0 -16 10 -9 44 30
47 52 55 72 30 81 -22 9 -19 17 20 57 38 39 43 55 20 63 -26 10 -16 32 25 55
40 23 63 60 41 67 -21 7 -11 22 29 42 40 21 57 60 25 60 -19 0 -19 10 0 38 9
12 22 39 30 59 7 21 14 31 14 23 1 -8 19 5 44 31 23 26 57 54 74 63 18 9 49
31 70 49 20 17 34 26 29 20 -4 -7 -4 -13 -1 -13 10 0 66 32 89 50 11 8 16 10
13 3 -4 -6 0 -19 9 -28 15 -15 14 -16 -9 -10 -36 9 -196 -72 -220 -112 -4 -7
-14 -13 -22 -13 -16 0 -57 -49 -50 -60 3 -5 -3 -11 -12 -14 -10 -3 -24 -15
-32 -27 -12 -20 -11 -21 6 -14 10 4 32 11 48 15 54 12 77 29 70 51 -5 15 -2
19 19 19 13 0 36 4 51 10 21 8 24 14 19 36 -7 25 -6 26 37 24 72 -4 79 -2 79
25 0 23 2 24 49 18 51 -6 72 7 52 31 -13 15 -5 26 20 26 10 0 31 11 46 25 28
25 28 25 8 41 -13 10 -35 14 -65 12 -38 -3 -45 0 -42 15 6 33 -44 20 -77 -20z"/>
<path d="M3625 3170 c6 -18 2 -19 -42 -14 -32 4 -54 1 -66 -8 -16 -12 -16 -15
-2 -35 9 -13 30 -26 48 -31 28 -7 32 -12 29 -37 l-4 -28 57 7 c53 6 56 5 50
-13 -8 -26 10 -35 68 -32 48 2 49 1 43 -22 -4 -19 0 -26 20 -35 14 -7 36 -12
49 -12 20 0 24 -5 22 -22 -2 -19 7 -26 63 -45 35 -12 65 -21 67 -19 5 5 -38
46 -48 46 -6 0 -7 5 -4 11 9 14 -31 56 -61 63 -13 4 -23 11 -21 17 4 19 -154
103 -196 103 -21 0 -34 2 -28 4 17 6 13 22 -6 23 -15 0 -15 2 2 9 12 4 26 3
35 -4 19 -15 76 -46 84 -46 3 0 3 8 -1 18 -3 9 4 5 16 -11 12 -15 44 -39 69
-53 26 -15 66 -47 90 -72 23 -24 42 -38 43 -31 0 8 7 -3 14 -24 8 -20 21 -47
30 -59 19 -28 19 -38 0 -38 -8 0 -15 -6 -15 -14 0 -20 22 -40 59 -56 30 -12
31 -14 15 -31 -16 -18 -16 -20 2 -40 10 -12 29 -25 42 -30 29 -11 40 -39 19
-50 -20 -11 -11 -44 17 -67 35 -27 40 -42 20 -57 -17 -12 -17 -15 10 -53 15
-22 37 -48 47 -58 20 -18 20 -18 15 48 -4 37 -11 80 -17 95 -7 15 -13 37 -14
49 -6 37 -34 95 -57 114 -13 11 -17 19 -10 20 15 0 1 33 -30 66 -14 15 -16 24
-8 29 6 4 12 5 13 4 1 -2 13 -26 26 -52 17 -33 27 -44 32 -35 6 9 9 4 9 -13 0
-26 36 -125 52 -143 4 -6 8 -24 8 -40 0 -17 3 -41 6 -54 5 -19 9 -20 22 -10
13 11 14 10 5 -7 -16 -30 -26 -145 -13 -145 5 0 10 9 10 19 0 10 11 43 25 73
32 68 34 138 5 138 -18 0 -20 6 -17 63 l2 62 -30 0 c-30 0 -30 1 -33 60 -3 66
-14 85 -45 82 -18 -2 -22 5 -27 38 -7 47 -16 65 -35 65 -7 0 -16 -6 -18 -12
-4 -9 -11 -6 -24 9 -10 12 -30 27 -45 32 -18 7 -28 18 -28 31 0 11 -7 37 -15
56 -13 31 -18 35 -40 30 -21 -5 -27 -1 -38 27 -8 18 -22 40 -31 49 -18 19 -46
14 -46 -8 0 -8 -4 -14 -9 -14 -12 0 -48 46 -56 70 -9 28 -46 36 -62 14 -12
-17 -15 -16 -44 19 -20 25 -39 37 -55 37 -21 0 -24 -4 -19 -20z"/>
<path d="M3188 2985 c-209 -51 -412 -219 -521 -430 -21 -43 -64 -181 -71 -234
-6 -42 -6 -43 16 -37 13 3 28 6 35 6 7 0 15 17 19 38 10 63 41 158 70 214 35
69 119 173 187 232 70 60 205 130 282 146 66 14 103 29 74 30 -9 0 -22 7 -30
16 -11 13 -9 15 16 12 16 -2 30 2 32 10 6 16 -34 15 -109 -3z m42 -25 c12 -8
12 -10 -5 -10 -11 0 -27 5 -35 10 -12 8 -12 10 5 10 11 0 27 -5 35 -10z m-44
-19 c-3 -5 -15 -7 -26 -4 -28 7 -25 13 6 13 14 0 23 -4 20 -9z m-51 -11 c17
-7 14 -9 -13 -9 -19 -1 -31 -5 -27 -11 4 -6 -7 -10 -25 -10 -18 0 -29 4 -25
10 3 6 15 10 25 10 10 0 22 5 25 10 7 12 13 12 40 0z m-98 -51 c-14 -8 -22 -8
-30 0 -8 8 -3 11 19 11 25 -1 27 -2 11 -11z m-37 -19 c0 -5 -12 -10 -27 -10
-22 0 -25 2 -13 10 20 13 40 13 40 0z m-40 -30 c0 -5 -12 -10 -27 -10 -22 0
-25 2 -13 10 20 13 40 13 40 0z m-40 -29 c0 -10 -25 -21 -48 -21 -15 1 -14 3
2 15 22 17 46 20 46 6z m-45 -41 c-3 -5 -15 -10 -26 -10 -11 0 -17 5 -14 10 3
6 15 10 26 10 11 0 17 -4 14 -10z m-37 -36 c-9 -9 -22 -14 -30 -11 -8 3 -4 8
12 15 35 15 37 14 18 -4z m-28 -33 c0 -10 -24 -21 -43 -21 -7 0 -3 7 7 15 22
17 36 19 36 6z m-35 -41 c-7 -11 -45 -33 -45 -26 0 2 7 12 16 20 17 18 39 22
29 6z m-30 -50 c-3 -5 -13 -10 -21 -10 -8 0 -12 5 -9 10 3 6 13 10 21 10 8 0
12 -4 9 -10z m-29 -46 c-30 -21 -45 -16 -16 6 14 10 27 16 30 13 3 -2 -4 -11
-14 -19z m-11 -34 c-3 -5 -16 -15 -28 -21 -22 -12 -22 -12 -3 10 19 21 43 30
31 11z m-25 -50 c-6 -11 -15 -20 -20 -20 -14 0 -12 6 6 24 21 22 27 20 14 -4z
m-10 -39 c0 -5 -7 -14 -15 -21 -12 -10 -15 -10 -15 2 0 8 3 18 7 21 9 10 23 9
23 -2z m-30 -77 c-18 -21 -24 -10 -9 18 8 14 14 18 17 10 2 -7 -2 -19 -8 -28z
m-5 -43 c-3 -6 -11 -11 -17 -11 -6 0 -6 6 2 15 14 17 26 13 15 -4z"/>
<path d="M3475 2973 c7 -31 21 -43 50 -43 37 0 117 -30 197 -72 82 -44 205
-152 262 -230 45 -63 95 -178 113 -261 16 -73 18 -78 40 -74 13 2 23 0 23 -4
0 -5 5 -9 10 -9 23 0 -23 188 -67 274 -87 172 -228 309 -399 387 -67 31 -168
59 -209 59 -25 0 -27 -3 -20 -27z m45 -8 c7 -8 8 -15 2 -15 -5 0 -15 7 -22 15
-7 8 -8 15 -2 15 5 0 15 -7 22 -15z m55 -23 c-9 -9 -35 8 -35 24 0 16 2 16 20
-1 11 -10 18 -20 15 -23z m41 -9 c-7 -7 -26 7 -26 19 0 6 6 6 15 -2 9 -7 13
-15 11 -17z m48 -9 c8 -21 -12 -17 -24 6 -8 16 -8 18 4 14 8 -3 17 -12 20 -20z
m40 -10 c10 -25 -1 -29 -14 -5 -6 12 -7 21 -1 21 5 0 12 -7 15 -16z m46 -24
c7 -13 7 -20 1 -20 -6 0 -15 9 -21 20 -7 13 -7 20 -1 20 6 0 15 -9 21 -20z
m50 -43 c0 -5 -7 -4 -15 3 -8 7 -15 20 -15 29 1 13 3 13 15 -3 8 -11 15 -24
15 -29z m30 -13 c0 -8 -4 -12 -10 -9 -5 3 -10 13 -10 21 0 8 5 12 10 9 6 -3
10 -13 10 -21z m43 -34 c3 -11 2 -20 -3 -20 -8 0 -20 24 -20 41 0 17 17 1 23
-21z m37 -33 c0 -18 -2 -19 -10 -7 -13 20 -13 43 0 35 6 -3 10 -16 10 -28z
m34 -23 c11 -28 6 -39 -9 -20 -8 11 -15 23 -15 28 0 14 18 9 24 -8z m36 -55
c0 -11 -4 -17 -10 -14 -5 3 -10 15 -10 26 0 11 5 17 10 14 6 -3 10 -15 10 -26z
m30 -35 c0 -14 -4 -22 -10 -19 -5 3 -10 17 -10 31 0 14 4 22 10 19 6 -3 10
-17 10 -31z m30 -46 c-1 -28 -2 -30 -11 -15 -6 10 -8 25 -5 33 9 24 16 16 16
-18z m22 -50 c-9 -9 -12 -7 -12 12 0 19 3 21 12 12 9 -9 9 -15 0 -24z m28 -32
c0 -14 -4 -28 -10 -31 -6 -4 -10 7 -10 24 0 17 5 31 10 31 6 0 10 -11 10 -24z
m11 -69 c-8 -8 -11 -5 -11 9 0 27 14 41 18 19 2 -9 -1 -22 -7 -28z m20 -44
c-10 -17 -10 -16 -11 3 0 23 13 41 18 25 2 -6 -1 -18 -7 -28z m10 -50 c-10
-17 -10 -16 -11 3 0 23 13 41 18 25 2 -6 -1 -18 -7 -28z m10 -50 c-10 -17 -10
-16 -11 3 0 23 13 41 18 25 2 -6 -1 -18 -7 -28z"/>
<path d="M3282 2786 c-29 -8 -56 -17 -60 -20 -4 -4 75 -6 175 -4 100 2 180 4
178 6 -2 2 -29 10 -62 17 -71 17 -161 18 -231 1z"/>
<path d="M2930 2720 c0 -14 7 -20 23 -20 13 0 34 -12 48 -26 l24 -26 0 -339
c0 -186 2 -339 5 -339 3 0 36 30 73 68 64 64 67 70 67 115 l0 47 49 0 c28 0
52 4 56 9 6 11 95 -36 102 -55 4 -11 12 -9 33 9 28 21 29 25 29 120 1 113 -12
126 -50 50 -30 -60 -55 -73 -146 -73 l-73 0 0 210 0 210 163 0 c89 0 179 -5
200 -11 58 -16 103 -62 128 -130 17 -45 26 -59 42 -59 19 0 20 4 14 83 -4 45
-7 103 -7 130 l0 47 -390 0 c-383 0 -390 0 -390 -20z"/>
<path d="M3745 2593 c6 -93 10 -108 42 -163 l36 -60 63 0 c35 0 66 5 70 11 3
6 -12 48 -34 92 -38 76 -86 137 -156 197 l-29 25 8 -102z"/>
<path d="M3200 2622 l0 -40 49 18 c100 39 230 34 324 -11 50 -23 43 -3 -12 36
-41 29 -43 29 -201 33 l-160 4 0 -40z"/>
<path d="M2942 2581 c-23 -27 -42 -52 -42 -56 0 -3 -9 -18 -20 -33 -10 -15
-31 -63 -46 -107 -47 -140 -36 -305 28 -442 30 -64 111 -173 129 -173 5 0 9
45 9 104 0 86 -4 112 -22 152 -20 43 -23 65 -23 174 0 109 3 131 23 174 18 40
22 66 22 152 0 57 -4 104 -8 104 -5 0 -28 -22 -50 -49z"/>
<path d="M3685 2393 c-45 -10 -165 -46 -165 -50 0 -2 11 -14 25 -27 l25 -24
-91 -96 c-50 -53 -95 -96 -100 -96 -5 0 -30 19 -55 42 l-45 42 -42 -45 c-22
-24 -80 -84 -127 -134 l-86 -90 -2 -85 c-1 -80 -3 -86 -29 -107 -16 -13 -36
-23 -45 -23 -10 0 -18 -7 -18 -15 0 -13 50 -15 389 -15 l388 0 12 113 c15 154
15 157 -9 157 -11 0 -23 -8 -26 -17 -16 -52 -42 -101 -68 -131 -52 -59 -75
-66 -247 -70 -200 -5 -199 -6 -199 131 l0 93 54 53 54 53 34 -25 c18 -14 41
-36 52 -48 l19 -22 60 64 c163 172 190 199 197 199 4 0 15 -9 25 -20 10 -11
21 -20 26 -20 6 0 29 90 45 183 7 39 2 42 -51 30z"/>
<path d="M2570 2248 c-96 -22 -184 -43 -194 -47 -13 -5 22 -16 110 -34 71 -15
166 -36 212 -46 l83 -19 -4 51 -3 51 -122 -3 c-83 -2 -122 1 -122 8 0 6 10 11
21 11 12 0 38 4 58 10 20 5 66 17 104 26 37 9 67 21 67 25 0 14 -22 10 -210
-33z"/>
<path d="M3990 2281 c0 -9 202 -61 235 -61 8 0 15 -5 15 -10 0 -6 -44 -9 -120
-8 -117 3 -120 2 -120 -18 0 -12 -3 -35 -6 -52 l-6 -30 83 18 c46 11 142 31
212 46 128 28 138 35 62 48 -22 4 -104 23 -182 42 -150 36 -173 39 -173 25z"/>
<path d="M2595 2078 c17 -112 82 -275 139 -351 49 -67 175 -185 231 -217 80
-47 173 -85 237 -99 110 -25 101 -26 93 11 -9 40 -15 44 -74 53 -25 4 -91 29
-146 55 -215 105 -371 312 -410 543 -6 40 -26 49 -45 20 -10 -16 -11 -16 -6
-1 3 9 -2 19 -11 22 -12 5 -14 -1 -8 -36z m36 -31 c-8 -8 -11 -7 -11 4 0 20
13 34 18 19 3 -7 -1 -17 -7 -23z m10 -50 c-13 -13 -15 1 -4 30 7 17 8 17 11
-1 2 -10 -1 -23 -7 -29z m29 -15 c0 -5 -7 -17 -16 -28 -14 -17 -15 -17 -10 -1
3 10 6 23 6 28 0 5 5 9 10 9 6 0 10 -4 10 -8z m1 -85 c-13 -13 -15 11 -4 40 7
16 8 15 11 -6 2 -13 -1 -28 -7 -34z m29 -24 c0 -20 -3 -24 -11 -16 -7 7 -9 19
-6 27 10 24 17 19 17 -11z m23 -54 c-4 -13 -9 -17 -16 -10 -12 12 -1 45 12 37
5 -3 7 -15 4 -27z m27 -40 c0 -10 -4 -19 -10 -19 -5 0 -10 12 -10 26 0 14 4
23 10 19 6 -3 10 -15 10 -26z m30 -45 c0 -14 -4 -22 -10 -19 -5 3 -10 17 -10
31 0 14 4 22 10 19 6 -3 10 -17 10 -31z m17 -41 c-3 -10 -5 -4 -5 12 0 17 2
24 5 18 2 -7 2 -21 0 -30z m33 -31 c0 -21 -2 -24 -10 -12 -13 20 -13 53 0 45
6 -3 10 -18 10 -33z m30 -24 c0 -18 -2 -20 -9 -8 -6 8 -7 18 -5 22 9 14 14 9
14 -14z m38 -37 c4 -28 -13 -20 -21 9 -3 14 -1 20 6 17 7 -2 14 -14 15 -26z
m36 -17 c9 -22 -3 -32 -14 -14 -12 19 -12 30 -1 30 5 0 12 -7 15 -16z m36 -36
c0 -19 -2 -20 -10 -8 -13 19 -13 30 0 30 6 0 10 -10 10 -22z m40 -24 c0 -8 -4
-12 -10 -9 -5 3 -10 13 -10 21 0 8 5 12 10 9 6 -3 10 -13 10 -21z m44 -43 c-7
-7 -34 28 -34 43 1 6 10 0 21 -13 11 -13 17 -27 13 -30z m30 14 c3 -8 12 -12
20 -9 9 3 19 -4 27 -18 11 -22 11 -22 -7 -7 -10 9 -24 14 -31 12 -6 -2 -17 5
-23 16 -6 12 -7 21 -1 21 5 0 11 -7 15 -15z m96 -40 c20 -24 6 -28 -15 -5 -10
11 -13 20 -8 20 6 0 16 -7 23 -15z m50 -15 c6 -11 7 -20 2 -20 -10 0 -32 21
-32 32 0 16 19 8 30 -12z m40 -5 c20 -24 6 -28 -15 -5 -10 11 -13 20 -8 20 6
0 16 -7 23 -15z"/>
<path d="M4152 2093 c-21 -26 -22 -27 -16 -4 4 17 2 22 -7 19 -8 -3 -17 -22
-22 -44 -37 -172 -107 -295 -232 -412 -54 -51 -101 -83 -168 -115 -83 -42
-110 -51 -199 -71 -26 -6 -41 -36 -18 -36 6 0 10 -4 10 -10 0 -5 -4 -9 -9 -7
-5 1 -8 -2 -8 -8 2 -11 18 -10 92 7 121 26 257 103 359 202 116 113 187 236
227 394 25 102 23 125 -9 85z m-2 -42 c0 -5 -7 -14 -15 -21 -16 -14 -18 -10
-9 14 6 17 24 22 24 7z m-10 -50 c0 -6 -4 -12 -10 -16 -5 -3 -7 -12 -4 -20 3
-8 -4 -19 -18 -26 -23 -12 -23 -12 -4 10 11 12 14 21 7 21 -9 0 -9 5 -1 20 11
21 30 27 30 11z m-44 -107 c-11 -7 -22 -11 -25 -8 -3 3 3 12 13 20 11 7 22 11
25 8 3 -3 -3 -12 -13 -20z m4 -18 c0 -10 -32 -36 -43 -36 -7 1 -1 10 12 20 23
20 31 24 31 16z m-30 -55 c0 -5 -7 -12 -16 -15 -24 -9 -28 -7 -14 9 14 17 30
20 30 6z m-40 -51 c-24 -15 -37 -11 -16 5 11 8 22 12 25 9 3 -3 -1 -9 -9 -14z
m-20 -40 c-16 -11 -40 -13 -40 -5 0 8 44 24 50 18 2 -2 -2 -8 -10 -13z m-14
-29 c-8 -12 -46 -21 -46 -11 0 5 8 11 18 13 29 8 33 7 28 -2z m-41 -41 c-3 -5
-15 -10 -26 -10 -11 0 -17 5 -14 10 3 6 15 10 26 10 11 0 17 -4 14 -10z m-30
-30 c-3 -5 -16 -10 -28 -10 -18 0 -19 2 -7 10 20 13 43 13 35 0z m-30 -30 c-3
-5 -18 -10 -33 -10 -21 0 -24 2 -12 10 20 13 53 13 45 0z m-50 -30 c4 -6 -6
-10 -22 -9 -25 0 -26 1 -8 9 11 5 21 9 22 9 1 1 5 -3 8 -9z m-35 -30 c0 -5 -9
-10 -20 -10 -11 0 -20 5 -20 10 0 6 9 10 20 10 11 0 20 -4 20 -10z m-42 -27
c-10 -2 -26 -2 -35 0 -10 3 -2 5 17 5 19 0 27 -2 18 -5z m-36 -25 c-6 -6 -20
-7 -32 -3 -16 5 -19 9 -10 15 17 11 54 0 42 -12z m-51 -17 c-8 -5 -20 -7 -28
-4 -21 8 -15 13 15 13 20 0 23 -3 13 -9z m-46 -11 c3 -5 -1 -10 -9 -10 -8 0
-18 5 -21 10 -3 6 1 10 9 10 8 0 18 -4 21 -10z m-44 -10 c6 0 8 -4 5 -9 -8
-12 -46 -2 -46 11 0 6 7 7 16 4 9 -3 20 -6 25 -6z m-51 -15 c10 -12 10 -15 -3
-15 -8 0 -20 7 -27 15 -10 12 -10 15 3 15 8 0 20 -7 27 -15z"/>
<path d="M2452 2098 c-7 -7 -12 -36 -12 -65 0 -41 -3 -51 -14 -47 -39 15 -18
-60 25 -90 22 -15 18 -36 -8 -36 -10 0 -13 -6 -9 -16 3 -9 6 -19 6 -24 0 -5
18 -19 40 -31 46 -26 57 -46 29 -54 -38 -12 -13 -58 42 -77 24 -8 27 -14 23
-37 -4 -17 -1 -31 8 -38 18 -14 107 -35 119 -27 14 8 -9 34 -30 34 -9 0 -23 5
-31 11 -12 8 -10 9 8 4 30 -8 28 0 -8 38 -17 18 -45 57 -62 87 -17 30 -40 63
-52 73 -12 10 -15 16 -8 12 18 -9 15 9 -9 60 -19 39 -19 46 -6 59 13 14 15 12
15 -18 0 -38 77 -205 98 -213 8 -3 14 -10 14 -16 0 -17 51 -78 61 -72 5 4 9 0
9 -8 0 -8 11 -22 25 -31 33 -22 38 -20 21 7 -8 12 -18 41 -22 64 -7 45 -27 72
-39 53 -12 -19 -25 1 -25 38 0 50 -12 66 -40 57 -23 -7 -23 -6 -17 46 7 56 -4
82 -30 72 -13 -5 -14 2 -8 49 7 59 -4 80 -30 58 -12 -10 -15 -6 -21 17 -7 32
-31 73 -42 73 -5 0 -13 -5 -20 -12z"/>
<path d="M4276 2088 c-7 -13 -17 -36 -20 -51 -5 -22 -10 -26 -19 -18 -7 5 -18
6 -26 1 -14 -8 -12 -52 5 -94 6 -16 4 -18 -14 -14 -29 8 -35 -5 -33 -69 1 -52
0 -54 -20 -48 -27 9 -39 -8 -39 -57 0 -32 -3 -37 -27 -40 -23 -3 -28 -10 -38
-55 -7 -29 -18 -59 -25 -68 -7 -8 -8 -15 -3 -15 13 0 53 39 53 51 0 6 4 8 9 5
11 -7 61 50 61 69 0 7 6 15 14 18 23 9 98 170 99 212 1 21 3 33 5 26 2 -6 8
-9 13 -5 15 9 10 -20 -11 -64 -11 -22 -20 -45 -20 -50 0 -17 -78 -144 -110
-180 -17 -19 -28 -37 -25 -40 3 -3 -5 -10 -16 -16 -28 -14 -21 -32 11 -28 86
10 125 37 99 69 -7 7 -10 14 -8 16 2 1 22 12 44 23 46 25 58 58 24 67 -23 6
-23 6 -3 28 10 11 31 27 46 35 35 18 46 53 23 70 -17 12 -16 16 14 50 34 38
37 70 8 68 -14 -2 -17 7 -17 50 0 71 -26 97 -54 54z"/>
<path d="M3791 1976 c-25 -46 -32 -72 -40 -158 -6 -56 -8 -104 -6 -107 3 -2
35 28 72 66 45 47 81 96 106 146 52 105 51 107 -32 107 l-69 0 -31 -54z"/>
<path d="M3583 1815 c-69 -48 -249 -57 -334 -16 -23 12 -44 21 -47 21 -2 0 -2
-15 0 -32 l3 -33 154 -3 c148 -2 155 -2 196 22 23 14 45 32 49 41 7 19 6 19
-21 0z"/>
<path d="M3190 1635 c0 -6 73 -25 141 -36 62 -10 148 -1 229 25 42 13 32 14
-162 15 -115 1 -208 -1 -208 -4z"/>
<path d="M3294 1552 c6 -18 52 -227 78 -352 l12 -55 13 50 c7 28 26 113 43
190 16 77 32 150 36 163 6 21 3 22 -45 22 l-50 0 -3 -132 -3 -133 -17 70 c-9
39 -23 98 -30 133 -8 40 -17 62 -26 62 -8 0 -11 -7 -8 -18z"/>
<path d="M2820 1531 c-9 -18 -12 -19 -38 -5 -43 22 -72 18 -72 -11 0 -23 44
-75 64 -75 6 0 1 -6 -9 -14 -28 -20 -6 -42 49 -50 39 -6 43 -9 38 -31 -3 -19
1 -25 22 -31 15 -3 36 -4 47 -1 12 3 22 0 26 -9 3 -9 20 -14 44 -14 37 0 39
-2 33 -25 -5 -20 -2 -25 18 -30 13 -3 36 -1 52 4 37 15 46 14 46 -4 0 -28 27
-27 82 4 30 17 67 31 81 31 15 0 27 5 27 11 0 12 -83 8 -114 -6 -14 -6 -17 -5
-12 3 7 12 -23 17 -72 13 -13 -1 -29 2 -35 7 -7 6 -45 24 -85 41 -41 17 -86
40 -102 51 -15 11 -37 20 -47 20 -12 0 -19 7 -19 20 0 24 9 25 27 4 20 -25
157 -94 193 -98 12 -1 30 -7 42 -14 11 -6 53 -14 93 -17 l73 -6 -34 29 c-68
59 -80 64 -101 45 -17 -16 -19 -16 -43 15 -24 31 -74 46 -74 22 0 -23 -27 -7
-45 28 -19 35 -65 58 -65 33 0 -24 -19 -9 -30 24 -15 45 -45 63 -60 36z"/>
<path d="M3913 1528 c-11 -13 -24 -33 -28 -45 -6 -23 -25 -32 -25 -12 0 6 -10
9 -22 7 -15 -2 -29 -16 -41 -40 -15 -34 -47 -53 -47 -28 0 23 -46 8 -72 -22
-26 -32 -27 -32 -41 -14 -14 19 -15 19 -48 -4 -19 -13 -47 -34 -62 -47 -27
-21 -27 -23 -7 -23 12 0 31 5 42 11 13 7 18 7 14 1 -8 -13 59 -4 89 11 11 6
33 12 49 14 16 2 43 12 60 23 17 10 52 29 78 40 26 12 49 28 51 35 3 7 15 15
27 18 21 5 21 5 5 -13 -13 -14 -13 -19 -3 -23 7 -3 2 -6 -13 -6 -14 -1 -46
-14 -71 -30 -25 -16 -56 -32 -69 -36 -13 -4 -47 -19 -75 -32 -27 -13 -59 -23
-70 -22 -45 5 -75 -1 -68 -13 5 -8 2 -9 -12 -3 -32 14 -104 18 -104 6 0 -6 9
-11 21 -11 12 0 47 -14 79 -31 58 -31 80 -32 80 -3 0 17 18 18 56 4 40 -16 67
-4 60 26 -6 22 -4 24 33 24 24 0 41 5 44 14 4 9 14 12 26 9 11 -3 32 -2 47 1
21 6 25 12 22 34 -3 24 0 27 27 28 66 1 98 30 58 52 -14 8 -12 12 16 26 31 17
57 59 45 77 -8 13 -45 10 -74 -6 -23 -12 -27 -12 -40 6 -16 20 -16 20 -37 -3z"/>
<path d="M2985 1109 c-16 -4 -42 -11 -57 -14 -33 -6 -36 -20 -8 -28 19 -5 20
-14 20 -180 0 -146 -2 -176 -15 -181 -37 -14 -10 -26 60 -26 73 0 92 9 58 28
-12 7 -17 29 -21 91 -4 69 -2 85 13 101 23 26 71 26 85 1 16 -32 13 -176 -5
-191 -28 -23 -15 -30 60 -30 41 0 75 3 75 8 0 4 -9 15 -20 25 -17 15 -20 29
-20 111 0 78 -3 97 -20 119 -29 36 -72 43 -120 19 l-40 -19 -2 51 c-4 136 0
126 -43 115z"/>
<path d="M3668 1099 c-21 -12 -24 -49 -6 -67 7 -7 24 -12 38 -12 50 0 68 47
28 74 -26 18 -36 19 -60 5z"/>
<path d="M2100 1085 c0 -2 11 -15 25 -29 24 -24 25 -29 25 -171 0 -142 -1
-147 -25 -171 -14 -14 -25 -27 -25 -29 0 -3 74 -5 164 -5 161 0 164 0 170 23
16 58 -1 132 -18 79 -12 -37 -54 -65 -106 -70 -70 -6 -80 5 -80 90 l0 69 48
-3 c38 -2 49 -7 57 -25 20 -46 35 -26 34 47 -1 75 -16 92 -37 45 -10 -21 -18
-25 -57 -25 l-46 0 3 73 3 72 35 3 c57 6 106 -14 120 -48 17 -42 45 -41 36 1
-3 17 -6 42 -6 55 l0 24 -160 0 c-88 0 -160 -2 -160 -5z"/>
<path d="M2714 970 c-68 -21 -114 -107 -100 -185 9 -46 65 -102 112 -111 48
-9 108 10 133 42 28 36 17 47 -22 24 -18 -11 -41 -20 -52 -20 -24 0 -59 27
-74 57 -16 31 -14 99 4 133 13 24 22 30 50 30 31 0 34 -3 37 -31 2 -18 11 -37
21 -43 15 -9 22 -7 37 11 48 59 -51 122 -146 93z"/>
<path d="M3385 970 c-17 -5 -46 -25 -64 -44 -28 -29 -35 -45 -38 -88 -5 -67
19 -114 73 -145 137 -79 286 66 214 207 -31 60 -114 92 -185 70z m88 -48 c37
-41 29 -190 -13 -212 -29 -15 -66 4 -79 41 -15 44 -14 113 3 154 12 29 20 35
44 35 16 0 36 -8 45 -18z"/>
<path d="M3681 966 c-30 -6 -56 -17 -59 -24 -2 -6 3 -12 11 -12 22 0 27 -22
27 -118 0 -74 -3 -89 -22 -109 l-21 -23 81 0 c78 0 100 9 67 28 -13 7 -16 32
-17 135 0 70 -3 129 -7 130 -3 2 -30 -1 -60 -7z"/>
<path d="M3920 970 c-45 -11 -96 -68 -104 -118 -15 -97 54 -182 147 -182 35 0
92 32 111 62 17 27 0 32 -32 9 -36 -25 -53 -26 -92 -6 -35 18 -55 78 -45 135
8 48 34 73 72 68 24 -3 28 -7 25 -30 -6 -47 59 -62 73 -17 10 30 -20 67 -62
78 -43 12 -44 12 -93 1z"/>
<path d="M4215 970 c-17 -5 -43 -23 -59 -39 -23 -24 -29 -41 -33 -93 -4 -55
-2 -68 19 -98 28 -41 80 -70 127 -70 40 0 108 36 117 63 9 28 1 29 -44 5 -39
-22 -41 -22 -77 -5 -34 16 -70 71 -59 89 3 5 48 8 100 8 l95 0 -7 38 c-8 42
-29 79 -53 91 -27 15 -94 20 -126 11z m85 -49 c5 -11 10 -29 10 -40 0 -18 -6
-21 -49 -21 -28 0 -52 3 -55 8 -2 4 2 22 9 40 11 26 20 32 44 32 20 0 34 -7
41 -19z"/>
<path d="M4500 963 c-43 -22 -65 -63 -53 -101 7 -20 27 -36 76 -61 68 -35 81
-49 71 -76 -16 -41 -94 -24 -114 25 -17 41 -34 33 -38 -17 -3 -38 -2 -40 36
-51 52 -16 95 -15 137 2 39 17 55 42 55 89 0 41 -17 58 -94 92 -48 21 -57 29
-54 48 2 17 10 23 40 25 32 3 39 -1 53 -27 21 -42 35 -39 35 8 0 47 -1 48 -66
56 -37 5 -58 2 -84 -12z"/>
<path d="M3588 598 c16 -16 16 -150 0 -166 -9 -9 -5 -12 17 -12 l30 0 -3 95
-3 95 -27 0 c-20 0 -23 -3 -14 -12z"/>
<path d="M3936 602 c-9 -14 9 -31 23 -23 7 5 10 14 7 20 -8 13 -23 14 -30 3z"/>
<path d="M3850 575 c0 -7 -8 -19 -17 -24 -13 -8 -15 -13 -6 -19 6 -4 13 -30
15 -57 3 -46 5 -50 31 -53 15 -2 27 1 27 7 0 6 -6 10 -12 9 -9 -2 -14 13 -16
45 -2 37 0 47 12 47 9 0 16 5 16 10 0 6 -7 10 -15 10 -8 0 -15 9 -15 20 0 11
-4 20 -10 20 -5 0 -10 -7 -10 -15z"/>
<path d="M2497 532 c-21 -23 -22 -76 -1 -96 19 -20 54 -20 80 -1 17 13 16 14
-18 8 -33 -5 -39 -3 -47 20 -5 14 -7 34 -4 45 9 35 53 40 53 6 0 -16 16 -19
25 -4 21 35 -59 54 -88 22z"/>
<path d="M2633 543 c-7 -2 -13 -14 -12 -26 l0 -22 16 23 c18 26 38 29 47 6 8
-20 10 -18 -37 -38 -31 -12 -38 -20 -35 -38 3 -21 9 -23 62 -25 43 -1 55 2 47
10 -6 6 -11 29 -11 52 0 23 -5 46 -12 53 -12 12 -43 15 -65 5z m51 -90 c-15
-24 -33 -27 -41 -7 -8 21 26 49 41 34 7 -7 7 -16 0 -27z"/>
<path d="M2759 547 c0 -1 -1 -30 -2 -65 l-2 -62 30 0 c22 0 26 3 17 12 -13 13
-16 56 -6 82 4 11 13 14 31 10 19 -5 24 -3 21 7 -3 9 -21 15 -46 16 -23 1 -42
1 -43 0z"/>
<path d="M2880 530 c-53 -53 3 -131 74 -104 25 10 19 22 -9 16 -27 -5 -55 12
-55 34 0 10 13 14 40 14 32 0 40 4 40 18 0 43 -55 57 -90 22z m58 -2 c19 -19
14 -28 -18 -28 -16 0 -30 4 -30 8 0 9 21 32 30 32 3 0 11 -5 18 -12z"/>
<path d="M3016 528 c-43 -61 9 -129 78 -102 25 10 19 22 -9 16 -27 -5 -55 12
-55 34 0 10 13 14 40 14 32 0 40 4 40 18 0 45 -67 59 -94 20z m62 -11 c3 -12
-3 -17 -22 -17 -25 0 -35 18 -19 34 12 12 38 2 41 -17z"/>
<path d="M3149 546 c0 0 -1 -29 -2 -64 l-2 -62 30 0 c20 0 26 3 17 9 -9 5 -12
24 -10 52 3 39 6 44 26 42 13 -2 22 3 22 11 0 9 -13 13 -40 13 -22 0 -40 0
-41 -1z"/>
<path d="M3332 538 c-21 -21 -13 -47 18 -63 17 -9 30 -22 30 -30 0 -18 -31
-20 -48 -3 -9 9 -12 8 -12 -5 0 -13 9 -17 33 -17 64 0 79 51 22 74 -38 16 -45
33 -19 43 11 4 22 -1 30 -12 13 -18 14 -18 14 3 0 17 -6 22 -28 22 -15 0 -33
-5 -40 -12z"/>
<path d="M3457 538 c-28 -22 -32 -73 -8 -97 41 -41 111 -16 111 40 0 57 -59
89 -103 57z m62 -12 c17 -21 9 -77 -12 -90 -15 -9 -21 -7 -33 8 -37 50 7 128
45 82z"/>
<path d="M3670 540 c-10 -6 -11 -10 -2 -10 8 0 12 -17 12 -49 0 -39 4 -51 18
-55 14 -4 68 -2 92 3 3 0 3 28 2 62 -3 49 -7 60 -20 57 -13 -2 -16 -13 -13
-50 2 -38 -1 -49 -17 -57 -27 -14 -44 7 -42 51 4 62 0 67 -30 48z"/>
<path d="M3930 540 c-10 -6 -11 -10 -2 -10 16 0 16 -82 0 -98 -9 -9 -5 -12 17
-12 l30 0 -3 65 c-4 66 -11 75 -42 55z"/>
<path d="M4027 532 c-24 -26 -22 -88 2 -102 51 -27 101 2 101 57 0 55 -67 85
-103 45z m62 -6 c7 -8 11 -32 9 -53 -3 -33 -6 -38 -28 -38 -32 0 -49 42 -32
80 13 28 33 32 51 11z"/>
<path d="M4158 539 c-11 -7 -11 -9 0 -9 10 0 13 -14 10 -55 -3 -50 -1 -55 17
-55 17 0 20 7 20 52 0 46 3 53 20 53 17 0 20 -7 20 -53 0 -46 2 -52 21 -52 19
0 21 4 16 53 -2 28 -9 57 -14 64 -10 13 -90 14 -110 2z"/>
</g>
</svg>
